<?xml version="1.0" encoding="utf-8"?>
<!-- Generator: Adobe Illustrator 24.3.0, SVG Export Plug-In . SVG Version: 6.00 Build 0)  -->
<svg version="1.1" id="Layer_1" xmlns="http://www.w3.org/2000/svg" xmlns:xlink="http://www.w3.org/1999/xlink" x="0px" y="0px"
	 viewBox="0 0 44 15.7" style="enable-background:new 0 0 44 15.7;" xml:space="preserve">
<style type="text/css">
	.st0{fill:#AE8F34;stroke:#231F20;stroke-width:0.6548;stroke-miterlimit:10;}
	.st1{fill:#AE8F34;stroke:#231F20;stroke-width:0.6435;stroke-miterlimit:10;}
	.st2{fill:none;stroke:#231F20;stroke-width:0.4035;stroke-miterlimit:10;}
	.st3{fill:#231F20;stroke:#AE8F34;stroke-width:0.6548;stroke-miterlimit:10;}
	.st4{fill:none;stroke:#AE8F34;stroke-width:0.6052;stroke-miterlimit:10;}
	.st5{fill:none;stroke:#AE8F34;stroke-width:0.4035;stroke-miterlimit:10;}
	.st6{fill:#FFFFFF;stroke:#AE8F34;stroke-width:0.6548;stroke-miterlimit:10;}
</style>
<circle class="st0" cx="36.5" cy="8.3" r="5.6"/>
<path class="st1" d="M36.2,11.5c-1.8,0-3.3-1.5-3.3-3.3s1.5-3.3,3.3-3.3"/>
<line class="st2" x1="36.2" y1="11.8" x2="36.2" y2="9"/>
<path class="st1" d="M36.8,11.5c1.8,0,3.3-1.5,3.3-3.3s-1.5-3.3-3.3-3.3"/>
<line class="st2" x1="36.9" y1="11.8" x2="36.9" y2="9"/>
<circle class="st3" cx="22.5" cy="8.3" r="5.6"/>
<path class="st4" d="M22.1,11.5c-1.8,0-3.3-1.5-3.3-3.3s1.5-3.3,3.3-3.3"/>
<line class="st5" x1="22" y1="11.8" x2="22" y2="9"/>
<path class="st4" d="M22.8,11.5c1.8,0,3.3-1.5,3.3-3.3s-1.5-3.3-3.3-3.3"/>
<line class="st5" x1="22.8" y1="11.8" x2="22.8" y2="9"/>
<circle class="st6" cx="7.9" cy="8.2" r="5.6"/>
<path class="st4" d="M7.5,11.5c-1.8,0-3.3-1.5-3.3-3.3s1.5-3.3,3.3-3.3"/>
<line class="st5" x1="7.5" y1="11.8" x2="7.5" y2="9"/>
<path class="st4" d="M8.2,11.5c1.8,0,3.3-1.5,3.3-3.3S10,4.8,8.2,4.8"/>
<line class="st5" x1="8.2" y1="11.8" x2="8.2" y2="9"/>
</svg>
