<?xml version="1.0" encoding="utf-8"?>
<!-- Generator: Adobe Illustrator 24.3.0, SVG Export Plug-In . SVG Version: 6.00 Build 0)  -->
<svg version="1.1" id="Layer_1" xmlns="http://www.w3.org/2000/svg" xmlns:xlink="http://www.w3.org/1999/xlink" x="0px" y="0px"
	 viewBox="0 0 343 142.2" style="enable-background:new 0 0 343 142.2;" xml:space="preserve">
<style type="text/css">
	.st0{fill:#AE8F34;stroke:#231F20;stroke-width:5;stroke-miterlimit:10;}
	.st1{fill:#AE8F34;stroke:#231F20;stroke-width:4.9138;stroke-miterlimit:10;}
	.st2{fill:none;stroke:#231F20;stroke-width:3.0811;stroke-miterlimit:10;}
	.st3{fill:#231F20;stroke:#AE8F34;stroke-width:5;stroke-miterlimit:10;}
	.st4{fill:none;stroke:#AE8F34;stroke-width:4.6216;stroke-miterlimit:10;}
	.st5{fill:none;stroke:#AE8F34;stroke-width:3.0811;stroke-miterlimit:10;}
	.st6{fill:#FFFFFF;stroke:#AE8F34;stroke-width:5;stroke-miterlimit:10;}
</style>
<circle class="st0" cx="281.1" cy="73.8" r="42.8"/>
<path class="st1" d="M278.5,98.8c-14,0-25.4-11.4-25.4-25.4s11.4-25.4,25.4-25.4"/>
<line class="st2" x1="278.4" y1="101.1" x2="278.4" y2="79.5"/>
<path class="st1" d="M283.2,98.8c14,0,25.4-11.4,25.4-25.4s-11.4-25.4-25.4-25.4"/>
<line class="st2" x1="284.1" y1="101.1" x2="284.1" y2="79.5"/>
<circle class="st3" cx="173.9" cy="73.7" r="42.8"/>
<path class="st4" d="M170.6,98.7c-14,0-25.4-11.4-25.4-25.4s11.4-25.4,25.4-25.4"/>
<line class="st5" x1="170.4" y1="101" x2="170.4" y2="79.4"/>
<path class="st4" d="M175.9,98.7c14,0,25.4-11.4,25.4-25.4S190,47.9,175.9,47.9"/>
<line class="st5" x1="176.1" y1="101" x2="176.1" y2="79.4"/>
<circle class="st6" cx="62.7" cy="73.4" r="42.8"/>
<path class="st4" d="M59.4,98.4c-14,0-25.4-11.4-25.4-25.4s11.4-25.4,25.4-25.4"/>
<line class="st5" x1="59.2" y1="100.7" x2="59.2" y2="79.1"/>
<path class="st4" d="M64.8,98.4c14,0,25.4-11.4,25.4-25.4S78.8,47.6,64.8,47.6"/>
<line class="st5" x1="64.9" y1="100.7" x2="64.9" y2="79.1"/>
</svg>
