<svg id="Draw_Layer" data-name="Draw Layer" xmlns="http://www.w3.org/2000/svg" viewBox="0 0 1001.4 482"><defs><style>.cls-1{fill:#af8f36;}</style></defs><path class="cls-1" d="M637.2,56.1a38.9,38.9,0,0,0-4.7.9A94.7,94.7,0,0,0,622,61a127,127,0,0,0-18.3,9.5c-3.1,1.9-6.1,3.9-9.1,5.9L584,83.5c-12.4,8.5-24.3,18-36.1,27.3l-9.1,7.6q-17.1,14.3-34.1,28.6c-2,1.6-4,3.2-5.9,4.9l-9.7,8.9-33.4,30.6-7.3,6.6-6.6,6.4L409,235.8l-12.4,11.8-3.6,3.5-27.3,27.8-24.8,25.2c-1.4,1.5-2.8,3.1-4.3,4.6-4.4,4.9-8.9,9.7-13.4,14.5-9.6,10.5-19.3,20.9-29,31.4-5.6,6.1-11.1,12.3-16.6,18.5-7,7.8-14,15.5-20.9,23.4s-14.6,16.6-21.8,25-15.2,17.8-22.7,26.8-12.7,15.4-18.9,23.1c-3.4,4.1-6.7,8.2-9.9,12.4s-6.8,8.8-10.1,13.3l-10.6,14.6-4.3,6.2c-1.2,1.7-2.4,3.5-3.5,5.3l-.7,1.1a7,7,0,0,0-1.3,2.4,6,6,0,0,0-.6,2.7,11.3,11.3,0,0,0,0,2.6,6.3,6.3,0,0,0,1.7,4.1,5.8,5.8,0,0,0,4,1.6h4.8a24,24,0,0,0,4.6-.5l1.8-.4,3.4-1a42.9,42.9,0,0,0,5-1.9c3.3-1.3,6.5-2.9,9.7-4.4l11.7-5.6c6.7-3.4,13.3-7.1,19.9-10.7l7-3.9c6.4-3.8,12.9-7.5,19.4-11.2l4.2-2.5c1.9-1.1,3.7-2.3,5.5-3.5l15.7-10c1.8-1.1,3.5-2.3,5.2-3.5l9-6.3,1.9-1.3c-1.3,1.8-2.5,3.7-3.7,5.6s-2.7,4-3.9,6.1-2.6,4.7-3.7,7.2-1.6,3.9-2.4,5.9a15.1,15.1,0,0,0-.5,4.2,10,10,0,0,0,.2,1.6,5.7,5.7,0,0,0,.8,2.8,6.1,6.1,0,0,1,.5,1.2c.6.8,1.1,1.6,1.7,2.3l1,.9a7.8,7.8,0,0,0,2.4,1.6,15.5,15.5,0,0,0,4.3,1.4l3.1.5,3.2.2a50.7,50.7,0,0,0,10.3-.2c3.5-.3,7-.9,10.4-1.5s7-1.5,10.5-2.3l6.1-1.6,18.7-5.5,3.4-1.1,10.8-3.6,12.8-4.3,19.5-7.3c3.6-1.4,7.3-2.6,10.9-4.1l17.9-7.5,17.3-7.3c2.7-1.1,5.4-2.3,8-3.6L487,444l9.8-4.5,8.7-4.2,41.1-20,13.3-6.4,6-3.2,3.9-2.1,31.9-4.8c4.1-.7,8.3-1.2,12.4-2l14.7-2.5,23.2-4.1,8.2-1.4,3.3-.5,5.7-1.2,28.6-4.9,30.4-5.2,13.8-2,20.2-3,33.4-4.9,4.6-.7,2.3-.3v.3c-1.2,3.3-2.2,6.7-3.3,10-2.5,7.7-4.8,15.5-6.9,23.3a389.3,389.3,0,0,0-9.7,46.6c-1,7.2-1.7,14.3-2,21.5a92.1,92.1,0,0,0,1.8,22.2,52.8,52.8,0,0,0,7.1,17.8,53.5,53.5,0,0,0,5.8,7.5,39.5,39.5,0,0,0,3.7,3.3,46,46,0,0,0,5.3,3.7,40.2,40.2,0,0,0,4.7,2.2c1.5.7,3,1.2,4.6,1.8a59.1,59.1,0,0,0,10.3,2.3,63.4,63.4,0,0,0,10.6.6,80.8,80.8,0,0,0,13-1.4,126.1,126.1,0,0,0,20.6-5.7,176.3,176.3,0,0,0,21-8.9c13.3-6.6,25.8-15.1,37.5-24.2,5.9-4.6,11.6-9.3,17.2-14.2s11.7-11,17.3-16.7c10.2-10.5,19.8-21.7,27.1-34.5a76.3,76.3,0,0,0,4.7-9.5c1.3-3.2,2.4-6.4,3.4-9.6a73.1,73.1,0,0,0,1.9-10.2,36.4,36.4,0,0,0-.3-11.4,36.9,36.9,0,0,0-1.1-4.5c-.5-1.4-1.1-2.8-1.7-4.1a29.9,29.9,0,0,0-5.2-7.4,33.8,33.8,0,0,0-7.1-6,44.5,44.5,0,0,0-10-5,57.9,57.9,0,0,0-10-3.1c-3.4-.9-6.8-1.5-10.3-2.1a227.2,227.2,0,0,0-23.3-2.5c-4.1-.2-8.2-.4-12.2-.4H897.1l-4,.2-22.4,1.5c-3.6.3-7.2.4-10.8.8L839,352.6c-4.2.5-8.4.8-12.6,1.4l-9.6,1.2c.6-1.6,1.1-3.3,1.7-4.9L857,338.5l1.4-.5,5.6-2,19.2-6.9,40.2-14.4c6.8-2.5,13.6-5.2,20.4-7.8l39.3-15.1,27.3-10.7,28.7-11.3,29.5-11.8,25.5-10.2c9-3.8,18-7.6,27.1-11.2s19-7.5,28.6-10.8a4.9,4.9,0,0,0,3.1-2.4,4.9,4.9,0,0,0,.5-3.9,5.2,5.2,0,0,0-6.3-3.7c-5.2,1.6-10.5,3.2-15.6,5.1s-10.2,3.8-15.3,5.8c-9.6,3.7-19.1,7.6-28.6,11.6l-15.4,6.1-16.2,6.5-31.2,12.5c-17.8,7.1-35.7,14.1-53.5,21l-41.2,15.9-19,7-43.3,15.6L855,327.5q-2.8,1-5.7,1.8L823,337.4l1.9-5.4c.9-2.4,1.7-4.9,2.6-7.3,2.2-5.3,4.4-10.7,6.5-16,4.4-10.6,8.7-21.2,13-31.8l13.2-30.1c3.2-7.5,6.6-14.9,9.6-22.5l14.7-35.8,2.7-6.9c2.7-7.1,5.4-14.2,7.9-21.3l3.6-10.8c1.1-3.5,2.3-7,3.4-10.5a99.1,99.1,0,0,0,2.4-10.8,59.9,59.9,0,0,0,.4-10.4,4.4,4.4,0,0,0-1.3-3.1,5.1,5.1,0,0,0-3.1-1.3l-2.6.3-1.5.4a5.6,5.6,0,0,0-2,1.1,5.5,5.5,0,0,0-1.7,1.7c-.8.9-1.4,1.8-2.1,2.7l-9,11.5c-3.1,3.9-6.2,8-9.2,12s-5.1,7.1-7.8,10.6l-9.3,12.6c-3.5,4.5-6.9,9-10.4,13.4s-6.4,7.9-9.6,11.9c-1.6,2-3.3,4-4.9,6.1s-2.3,2.5-3.5,3.8c-4.3,4.8-8.6,9.6-12.8,14.5l-3,3-8.1,8.6c-2.9,3.1-5.7,6.2-8.8,9.1l-15.6,15-3.8,3.5-.9.9-3.2,2.6-15.9,13.6c-2.3,2-4.6,4-7,5.8L722.3,298,693,319.1c-1,.6-1.9,1.4-2.8,2l-4,2.5-18.7,11.7-15.8,9.9-7.1,4.1-36.1,21-6,3.3-18.1,9.7L564,394.2h-.2l-14.1,2.2-15.3,2.1h.2l-4.1.7a4.3,4.3,0,0,0-2.2,1.2,5,5,0,0,0,3.5,8.4l3.5-.3-43.6,21-6.5,3-19.6,8.9-30.7,14.1-32,13.3-3.8,1.6-4.4,1.6-21,7.8-5.1,1.9-4.7,1.6-19.6,6.5-3.8,1.1-11.2,3.3-6.1,1.8c-3.5,1-7,1.8-10.5,2.6a107.8,107.8,0,0,1-11.1,2l-6.8.5a49.1,49.1,0,0,1-7.7-.3h-.6l-1.9-.5-.5-.2h0a.3.3,0,0,0-.1-.2h0v-.4a51,51,0,0,1,1.9-5.5c1-2,2-3.8,3-5.7s2.6-4.4,3.9-6.5c2.6-4.2,5.4-8.2,8.2-12.3s5.5-8.2,8.4-12.1l8.5-11.7a7.2,7.2,0,0,0,1.8-3.2,5.5,5.5,0,0,0-2.4-6.1,5.5,5.5,0,0,0-6.6.9c-2,2-4,4.1-6.2,5.9l-7.7,6.3c-6.8,5.1-13.6,10.2-20.5,15l-8.4,5.7c-1.2.8-2.2,1.6-3.4,2.3l-14.6,9.3c-2.7,1.7-5.5,3.5-8.3,5.1L225,496.3,209.8,505c-6.1,3.3-12.2,6.6-18.4,9.7l-8.3,4c-3.1,1.5-6.1,3-9.2,4.3a63.4,63.4,0,0,1-7.3,2.6l1.8-2.9c1.1-1.6,2.2-3.3,3.4-4.9,2.4-3.6,4.9-7.1,7.4-10.7l6.8-9.4,8.3-11,20.2-25.3c3.7-4.6,7.6-9.1,11.3-13.7l8.6-10.4c3.3-3.9,6.6-7.9,9.9-11.7l12.6-14.7c2.8-3.1,5.4-6.3,8.2-9.4l10.8-12.3,15.5-17.5c2.2-2.5,4.4-5.1,6.7-7.6L321.2,339l25.2-27.4c1.3-1.4,2.6-2.8,4-4.1l13-13.4L394.7,262c2-2,3.9-4.1,5.9-6l7.1-6.9,32.8-31.6c5.2-5.1,10.4-10.2,15.8-15.2l30.2-27.9L501,161l4.7-4.3,30.2-25.5,14-11.9,2.1-1.7,8.7-7,9.5-7.4q6.4-5.1,13.2-9.9c4.9-3.6,10-7,15-10.4s9-5.9,13.7-8.7c2.5-1.5,5.2-2.9,7.9-4.3s4.9-2.2,7.4-3.3l5.5-2.1a27,27,0,0,1,5.6-1.4h1.1a8.1,8.1,0,0,1,2.2,0l1.8.5a9.5,9.5,0,0,1,1.7,1l.7.6v.4a5.5,5.5,0,0,1-.2,1.8c.1-.3.1-.5.2-.8l-.6,2.5a20.2,20.2,0,0,1-.7,2.3c-1.4,3-2.8,5.9-4.1,8.9s-2.7,5.8-4.2,8.7a229.8,229.8,0,0,1-21.8,33.3l.4-.5c-4.6,5.9-9.4,11.8-14.3,17.5l-3.3,3.5c-4.9,5.4-9.9,10.7-14.9,16.1l-4.1,4.5a30.7,30.7,0,0,1-2.6,2.5l-16,15.6c-2.5,2.4-5,4.9-7.6,7.2L536.1,203l-3.1,2.7-6.1,5-17.4,14a2.7,2.7,0,0,0-.8,1.9,2.8,2.8,0,0,0,.8,2,2.7,2.7,0,0,0,1.9.8,3,3,0,0,0,2-.8l17.4-14,6.1-5c1.3-1,2.5-2.1,3.7-3.2l16.2-14.3c2.9-2.5,5.6-5.3,8.4-8l15.6-15.2c2.7-2.5,5.1-5.3,7.6-8l14.9-16.1c2.3-2.4,4.4-4.8,6.5-7.3,5-6,9.8-12.1,14.5-18.3a208.8,208.8,0,0,0,20.2-32.4l3.9-8c.7-1.4,1.5-2.8,2.2-4.3a23.5,23.5,0,0,0,1.4-3.7,27.4,27.4,0,0,0,.9-3.9,14.8,14.8,0,0,0,.1-2.1,14.2,14.2,0,0,0-.4-2,5.9,5.9,0,0,1-.4-.8,17.7,17.7,0,0,0-1.2-1.7l-1-.9L648.2,58a22.1,22.1,0,0,0-3.5-1.6,22.5,22.5,0,0,0-3.6-.6h-1a13.6,13.6,0,0,0-2.9.3Zm5.1,7h0Zm1.5.5h0Zm-16.7,3.1-.3.2.3-.2Zm17.8,4.6-.3.7.3-.7Zm247.6,59.8,3.5-4.5a85.6,85.6,0,0,1-2.4,10c-1,3.6-2.3,7.1-3.4,10.6-2.6,7.8-5.4,15.5-8.3,23.2s-5.5,14.1-8.4,21.1c-4.7,11.5-9.5,23-14.3,34.6s-9.7,21.8-14.5,32.8l-6,13.6c-1.4,3.1-2.7,6.3-4,9.5-5.3,13.1-10.7,26.1-16.1,39.1-.9,2.3-1.7,4.7-2.6,7.1-1.5,4.2-3,8.5-4.6,12.8l-3.9,1.2-18.2,5.6-5.6,1.7-37.9,9.6L726,364.2c-2.2.5-4.4,1.2-6.6,1.6l-38.6,8c-8.1,1.7-16.2,3.6-24.5,5L618,385.6c-7.1,1.3-14.2,2.4-21.3,3.5l7.9-4.3c2.6-1.3,5.2-2.6,7.7-4.1,4.5-2.6,9-5.2,13.4-7.9l20.4-11.9,7.1-4.1,2.9-1.7L687.9,335l6.2-4a13.7,13.7,0,0,0,2-1.3l15.1-10.9,15.6-11.3c3.2-2.3,6.2-4.8,9.2-7.2l17.7-13.9,3-2.4,4.6-4,17.1-14.7,3.5-3,1-1,3.2-3.2c5.2-4.9,10.3-9.9,15.4-14.9,3.1-3,6-6.3,9-9.4l6.9-7.4,3.3-3.6,11.8-13.4,4.2-4.8,3-3.7,10.8-13.6,3.8-4.9,6.6-8.7c3-3.9,5.9-7.9,8.8-11.9l8.6-12,8.5-11.4,5.7-7.3ZM806.8,353.9l-.9,2.7-14.2,1.9,15.1-4.6Zm94.8,3.4h12.2c2.5,0,5-.1,7.5,0,7.9.3,15.7.9,23.6,1.9s16.9,2.9,24.8,6l3.7,1.7a48.6,48.6,0,0,1,5.4,3.3l1.6,1.5a24.2,24.2,0,0,1,3.1,3.3l1.2,1.7c.6,1.1,1.2,2.2,1.7,3.3s.5,1.7.8,2.5.3,1.4.4,2.2a33.9,33.9,0,0,1,.2,4.5,35.4,35.4,0,0,1-.2,4.6c-.5,2.6-1,5.2-1.7,7.8s-1.7,5.2-2.7,7.7a113,113,0,0,1-6.3,11.9,118.9,118.9,0,0,1-7.7,10.9c-6.9,8.8-14.7,16.8-22.6,24.7a321.6,321.6,0,0,1-27.2,23.6c-13.9,10.7-28.8,20.2-45,27.2-5.3,2.2-10.6,4.2-16.1,5.9a110.2,110.2,0,0,1-17.2,4l-6.7.5a49.1,49.1,0,0,1-8.6-.3c-2-.4-4.1-.7-6.1-1.2a51,51,0,0,1-6.3-2l-3.6-1.8-3.5-2.3-3.3-2.9a20.9,20.9,0,0,1-2.4-2.8c-.9-1.2-1.8-2.5-2.6-3.8a42.5,42.5,0,0,1-2.7-5.2,61.2,61.2,0,0,1-2.2-6.9c-.6-2.6-1-5.1-1.4-7.7s-.5-5.1-.7-7.7,0-6.2.2-9.3c.3-5.8.9-11.6,1.7-17.4a390.5,390.5,0,0,1,9-44.3c1.9-7.3,4-14.4,6.2-21.5,1.2-3.9,2.4-7.8,3.7-11.6.6-1.5,1.1-3,1.6-4.6l2.2-.2c4.2-.6,8.4-1.2,12.7-1.6l20.4-2,9.7-1,3.5-.4,34.9-2.2h4.8ZM978,369.6l.3.2-.3-.2Zm4.9,4.6.3.3-.3-.3Zm4.8,11.1v0ZM283.5,498.6l.3.7-.3-.7Zm.9,1.9a1,1,0,0,1,.4.5l-.4-.5ZM533.3,398.7h0Z" transform="translate(-152.2 -55.8)"/></svg>