<?xml version="1.0" encoding="utf-8"?>
<!-- Generator: Adobe Illustrator 24.3.0, SVG Export Plug-In . SVG Version: 6.00 Build 0)  -->
<svg version="1.1" id="Layer_1" xmlns="http://www.w3.org/2000/svg" xmlns:xlink="http://www.w3.org/1999/xlink" x="0px" y="0px"
	 viewBox="0 0 112.6 109.8" style="enable-background:new 0 0 112.6 109.8;" xml:space="preserve">
<style type="text/css">
	.st0{fill-rule:evenodd;clip-rule:evenodd;fill:#FFFFFF;}
</style>
<path class="st0" d="M56.3,0C25.2,0,0,25.2,0,56.3c0,24.2,15.5,45.7,38.5,53.4c2.8,0.5,3.8-1.2,3.8-2.7s0-4.9-0.1-9.6
	c-15.7,3.4-19-7.6-19-7.6c-2.6-6.5-6.2-8.2-6.2-8.2c-5.1-3.5,0.4-3.4,0.4-3.4C23.1,78.6,26,84,26,84c5,8.6,13.2,6.1,16.4,4.7
	c0.3-2.9,1.5-5.5,3.6-7.5C33.5,79.8,20.4,75,20.4,53.4c-0.1-5.6,2-11,5.8-15.1c-0.6-1.4-2.5-7.2,0.5-14.9c0,0,4.7-1.5,15.5,5.8
	c9.2-2.5,19-2.5,28.2,0c10.8-7.3,15.5-5.8,15.5-5.8c3.1,7.8,1.1,13.5,0.6,14.9c3.8,4.1,5.8,9.5,5.8,15.1c0,21.6-13.1,26.4-25.7,27.8
	c2,1.7,3.8,5.2,3.8,10.4c0,7.5-0.1,13.6-0.1,15.4c0,1.5,1,3.3,3.9,2.7c29.5-9.8,45.5-41.6,35.8-71.1C102.3,15.5,80.6-0.1,56.3,0z"/>
</svg>
