<svg id="Layer_2" data-name="Layer 2" xmlns="http://www.w3.org/2000/svg" viewBox="0 0 413.3 348.6"><defs><style>.cls-1,.cls-2,.cls-3,.cls-4,.cls-5,.cls-6,.cls-7{fill:none;stroke-miterlimit:10;}.cls-1{stroke:#9f8931;}.cls-2,.cls-3,.cls-4,.cls-5,.cls-6,.cls-7{stroke:#e1b824;}.cls-3{stroke-width:0.5px;}.cls-4{stroke-width:0.75px;}.cls-5{stroke-width:0.55px;}.cls-6{stroke-width:0.2px;}.cls-7{stroke-width:0.25px;}</style></defs><path class="cls-1" d="M50.5,35.5" transform="translate(-14.8 -26.9)"/><path class="cls-2" d="M50.5,39.2a5.8,5.8,0,0,1,4.4-4.7c23.9-5.6,65.6,16,65.6,16s28.9,14.7,27,24-35,7-72-12c0,0-21-10-25-17C49.4,43.5,50.2,41,50.5,39.2Z" transform="translate(-14.8 -26.9)"/><path class="cls-2" d="M170.5,77.5c116-15,194,51,248,181" transform="translate(-14.8 -26.9)"/><path class="cls-2" d="M173.5,301.5a33.9,33.9,0,0,0-17.2,2.6l-2.1.9-52.7,18.5c-9,2-18-1-18-1s12.5-23.6,25-33a30.8,30.8,0,0,1,15-6c9-1,9-13,9-16s20-18,24-20,22-20,24-24,0-6,0-6-3-3-9,0-58,24-60,24-11.4,5.2-12.8,5.9l-.3.3c-19,19.9-46.9,45.9-34.9,70.8l-7.2-2.1a12.6,12.6,0,0,1-5.1-3c-69.5-63.3-16.7-128.9-16.7-128.9-9-16-2-39-2-39s20-40,75-55" transform="translate(-14.8 -26.9)"/><path class="cls-2" d="M75.4,170.7a21.9,21.9,0,0,1-1.1-12.4c4.2-23.2,18-25.7,29.2-23.8s32,25,20,43c0,0-15,21-34,10C81.1,182.7,77.4,175.6,75.4,170.7Z" transform="translate(-14.8 -26.9)"/><path class="cls-2" d="M16.2,240.6c64.3,4.9,103.3-2.1,119.3-11.1s40-22,45-25,21,5,15,13c-3.8,5.1-24,49-24,65s6,54,6,54" transform="translate(-14.8 -26.9)"/><path class="cls-3" d="M63.5,318.5s-3-11,0-17,31-41,43-46c0,0,22-8,26-4s0,16,0,16" transform="translate(-14.8 -26.9)"/><path class="cls-3" d="M114.5,132.5c33.8,34.8,18.6,49.6,10,56" transform="translate(-14.8 -26.9)"/><path class="cls-3" d="M148.5,258.5c4-3,16-13,19-14s20-20,21-24,4-13-11-9" transform="translate(-14.8 -26.9)"/><path class="cls-4" d="M56.8,115l-8.4-14.9a2.5,2.5,0,0,1,.2-3c1.9-2.3,5.7-6.6,7.9-6.6s-3-7.6-5.6-11.1a2.6,2.6,0,0,1,.3-3.5c2.5-2.4,7.2-6.7,9.3-7.4A5.8,5.8,0,0,0,62.9,67a2.6,2.6,0,0,0-.3-3.9c-3.1-2.4-9.2-7.5-12.1-12.6-4-7-5.8-14.6,1-18,13.7-6.8,43.6.6,58,6.6a2.8,2.8,0,0,0,2,0c2.6-1,9.6-3.6,12-3.6a12.1,12.1,0,0,1,3.8.6,2.7,2.7,0,0,0,2.3-.4c2.6-1.8,9.4-6,14.9-5.2,7,1,5,1,5,1s6.8-3.9,21.4-2.1a2.1,2.1,0,0,0,1.1,0,61.8,61.8,0,0,1,9.5-1.9A24.6,24.6,0,0,1,194,29.3l1.1.2c2.9-.2,14.7-.6,20.9,1.8l1,.2c2.2,0,11.4.2,17.5,2,3.1.9,4.4,1.6,4.9,2.1a2.6,2.6,0,0,0,2.1.6c3.5-.3,10.8-.7,16,2.3,7,4,5,4,5,4s5-2,9,0,12,5,12,7,0,0,3,0,18,7,18,8h0a2.7,2.7,0,0,0,2.9,2.7,11.8,11.8,0,0,1,5.1.3c2,1,13,6,13,8a6.4,6.4,0,0,0,.3,2,2.7,2.7,0,0,0,2.6,2h3.1c1,0,15,10,15,11v.4a2.7,2.7,0,0,0,2.5,2.7,15,15,0,0,1,4.5.9c2,1,14,9,14,12v1.1a2.7,2.7,0,0,0,1.8,2.5c2.2.8,6.2,2.4,8.2,4.4s7,7,7,9-27.3,32.3-27.3,32.3" transform="translate(-14.8 -26.9)"/><line class="cls-3" x1="352.7" y1="73.6" x2="326.7" y2="105.6"/><line class="cls-3" x1="332" y1="59.4" x2="310.7" y2="90.6"/><line class="cls-3" x1="311.9" y1="45.4" x2="293.4" y2="79.4"/><line class="cls-3" x1="290.4" y1="32.7" x2="274.7" y2="68.6"/><line class="cls-3" x1="268.7" y1="22.6" x2="256.9" y2="60.3"/><line class="cls-3" x1="246.6" y1="14.7" x2="238.2" y2="53.9"/><line class="cls-3" x1="224.7" y1="8.6" x2="218.8" y2="50.2"/><line class="cls-3" x1="202.2" y1="4.6" x2="200" y2="48.1"/><line class="cls-3" x1="179.2" y1="2.3" x2="178.8" y2="48.1"/><line class="cls-3" x1="157.2" y1="2.4" x2="158.6" y2="49.8"/><line class="cls-3" x1="134.7" y1="4.6" x2="138.7" y2="39.6"/><line class="cls-3" x1="48.1" y1="40.1" x2="65.9" y2="74"/><path class="cls-5" d="M88.5,80.5C89.6,82.7,94,95,94,95" transform="translate(-14.8 -26.9)"/><line class="cls-5" x1="113.7" y1="10" x2="115.7" y2="24.6"/><path class="cls-2" d="M109.5,39.1s62,36.4,81,54.4c0,0,8,12,13,14s14,8,12,17-6.2,9.3-6.2,9.3" transform="translate(-14.8 -26.9)"/><path class="cls-2" d="M62.6,63.1s37.9,25.4,50.9,29.4,27,17,28,19,17,15,24,17c0,0,2,10,15,10,10.1,0,13-2.4,13.7-3.5a1,1,0,0,1,1-.4c2.1.2,8.6.9,10.3.9a3.9,3.9,0,0,0,2.6-1.4,1.1,1.1,0,0,1,1.2-.3c76.2,26.6,75.8,150.9-28.8,198.7l-3,4s-16,22-16,39" transform="translate(-14.8 -26.9)"/><path class="cls-3" d="M135.5,229.5s-31,2-43,0-23.3-25.5-21.2-37a.4.4,0,0,0-.6-.4,16.5,16.5,0,0,1-9.2,2.4c-7,0-16-7-20-7a11,11,0,0,1-7-3" transform="translate(-14.8 -26.9)"/><path class="cls-3" d="M76.5,138.5c-15,17-3.5,38.6,0,44.5a4.1,4.1,0,0,1,.4,3.7s-2.4,3.8-4.4,4.8" transform="translate(-14.8 -26.9)"/><path class="cls-5" d="M31.4,150.1c.5,6.1.6,6.9,14.6,4.9s23-17,34-28c0,0,5-9,14-10s21,3,26,1,9-6,5-11-35-4-41-3a160.9,160.9,0,0,0-16.2,4.2L56.5,90.5" transform="translate(-14.8 -26.9)"/><path class="cls-3" d="M131.5,204.5c12-17,26-29-4-68,0,0-4.5-7.5,3.5-8.5s5,3,12,5,15,21,16,29,10,7,10,7c1,7,9,7,13,7s6-6,8-10,5-2,5-2,10-12,10.5-28.5" transform="translate(-14.8 -26.9)"/><path class="cls-6" d="M31.4,190.5C36,199,35.5,234.2,34,238s-15,29-15,29" transform="translate(-14.8 -26.9)"/><path class="cls-3" d="M170.5,102.5c-11,0-17,5-20,9" transform="translate(-14.8 -26.9)"/><path class="cls-3" d="M181.5,107.5c-10,2-17,11-17,14" transform="translate(-14.8 -26.9)"/><path class="cls-7" d="M140,79c-3-13-53-39-60-41s-23.5-3.1-27.7-1.5" transform="translate(-14.8 -26.9)"/><path class="cls-3" d="M132.5,227.5c-13-4-11-14-8-17a22.2,22.2,0,0,1,5-4s7-6,2-6-10,9-13,3-2-12-6-13l-4-1" transform="translate(-14.8 -26.9)"/><path class="cls-6" d="M384.5,116.5C397,128,427,168,428,171l-36.5,29.3" transform="translate(-14.8 -26.9)"/><line class="cls-6" x1="364.9" y1="154.8" x2="399.6" y2="127"/><path class="cls-6" d="M370.4,164.9s28.3-27.3,33-27.1" transform="translate(-14.8 -26.9)"/></svg>